<svg width="1446" height="639" viewBox="0 0 1446 639" fill="none" xmlns="http://www.w3.org/2000/svg">
<ellipse cx="728.59" cy="335.655" rx="716.5" ry="302.5" fill="#030202"/>
<path d="M1419.61 302.895C1419.61 339.972 1401.87 376.485 1367.31 410.981C1332.7 445.53 1281.92 477.27 1218.09 504.22C1090.48 558.095 913.245 591.745 716.76 591.745C520.276 591.745 343.037 558.095 215.427 504.22C151.596 477.27 100.822 445.53 66.2095 410.981C31.6504 376.485 13.9103 339.972 13.9103 302.895C13.9103 265.818 31.6504 229.305 66.2095 194.809C100.822 160.26 151.596 128.52 215.427 101.57C343.037 47.6949 520.276 14.045 716.76 14.045C913.245 14.045 1090.48 47.6949 1218.09 101.57C1281.92 128.52 1332.7 160.26 1367.31 194.809C1401.87 229.305 1419.61 265.818 1419.61 302.895Z" fill="#FF6F00" stroke="#F6FCFF" stroke-width="27.3"/>
<path d="M284.088 238.353C295.19 238.353 304.927 239.991 313.299 243.267C321.671 246.361 328.132 250.729 332.682 256.371C337.414 261.831 339.78 267.928 339.78 274.662C339.78 281.942 337.232 287.948 332.136 292.68C327.222 297.412 320.488 299.778 311.934 299.778C303.198 299.778 296.373 297.594 291.459 293.226C286.545 288.676 284.088 282.579 284.088 274.935C284.088 271.295 284.634 267.473 285.726 263.469C278.082 265.471 271.257 269.475 265.251 275.481C259.427 281.305 255.514 289.04 253.512 298.686C252.42 304.146 251.874 309.06 251.874 313.428C251.874 323.256 254.604 330.718 260.064 335.814C265.524 340.91 273.35 343.458 283.542 343.458C289.366 343.458 294.371 342.912 298.557 341.82C302.743 340.546 307.02 338.908 311.388 336.906C315.028 335.086 317.667 334.176 319.305 334.176C320.397 334.176 321.125 334.449 321.489 334.995C321.853 335.359 322.035 336.269 322.035 337.725C322.217 344.459 319.396 351.557 313.572 359.019C307.93 366.299 300.013 372.487 289.821 377.583C279.811 382.497 268.527 384.954 255.969 384.954C242.865 384.954 231.217 382.588 221.025 377.856C211.015 372.942 203.189 366.026 197.547 357.108C192.087 348.008 189.357 337.452 189.357 325.44C189.357 319.798 190.085 313.519 191.541 306.603C196.455 284.035 207.284 267.018 224.028 255.552C240.954 244.086 260.974 238.353 284.088 238.353ZM438.604 239.718C463.356 239.718 481.556 244.723 493.204 254.733C505.034 264.743 510.949 277.847 510.949 294.045C510.949 299.505 510.221 305.602 508.765 312.336C505.307 327.26 498.846 340.364 489.382 351.648C479.918 362.75 468.27 371.395 454.438 377.583C440.788 383.589 425.955 386.592 409.939 386.592C384.641 386.592 365.895 381.587 353.701 371.577C341.689 361.385 335.683 347.917 335.683 331.173C335.683 325.531 336.411 319.252 337.867 312.336C341.325 298.14 347.877 285.582 357.523 274.662C367.351 263.56 379.272 255.006 393.286 249C407.482 242.812 422.588 239.718 438.604 239.718ZM437.785 264.015C433.963 264.015 429.868 267.473 425.5 274.389C421.314 281.123 416.309 293.954 410.485 312.882C404.661 331.81 401.749 345.096 401.749 352.74C401.749 356.744 402.386 359.474 403.66 360.93C404.934 362.204 406.663 362.841 408.847 362.841C412.669 363.205 416.582 359.929 420.586 353.013C424.772 346.097 429.959 332.629 436.147 312.609C441.789 294.955 444.61 282.124 444.61 274.116C444.61 270.294 443.973 267.655 442.699 266.199C441.607 264.743 439.969 264.015 437.785 264.015ZM646.152 239.718C656.344 239.718 664.443 242.812 670.449 249C676.637 255.188 679.731 262.832 679.731 271.932C679.731 275.39 679.367 278.575 678.639 281.487C676.819 288.949 673.361 294.682 668.265 298.686C663.169 302.69 657.072 304.692 649.974 304.692C643.058 304.692 637.78 303.054 634.14 299.778C630.682 296.502 627.588 292.134 624.858 286.674C623.402 283.58 622.037 281.305 620.763 279.849C619.489 278.393 618.033 277.665 616.395 277.665C614.575 277.665 612.937 278.393 611.481 279.849C610.207 281.305 609.024 283.853 607.932 287.493L586.911 355.743C586.547 356.653 586.365 358.018 586.365 359.838C586.365 362.204 587.002 364.206 588.276 365.844C589.732 367.3 591.643 368.756 594.009 370.212C596.193 371.668 597.649 372.851 598.377 373.761C599.105 374.671 599.378 375.854 599.196 377.31C598.832 379.676 597.467 381.405 595.101 382.497C592.917 383.589 589.095 384.135 583.635 384.135H513.747C509.015 384.135 505.648 383.407 503.646 381.951C501.462 380.313 500.643 378.22 501.189 375.672C501.917 373.488 503.828 371.577 506.922 369.939C509.652 368.483 511.927 366.754 513.747 364.752C515.567 362.75 517.114 359.565 518.388 355.197L542.685 276.3C543.049 275.39 543.231 274.116 543.231 272.478C543.231 270.476 542.776 268.929 541.866 267.837C541.138 266.745 539.864 265.38 538.044 263.742C536.224 262.286 534.95 261.012 534.222 259.92C533.494 258.828 533.403 257.372 533.949 255.552C535.041 251.366 540.774 247.726 551.148 244.632C561.522 241.356 572.351 239.718 583.635 239.718C591.097 239.718 597.285 241.447 602.199 244.905C607.113 248.181 610.298 252.913 611.754 259.101C620.49 246.179 631.956 239.718 646.152 239.718ZM804.247 239.718C814.439 239.718 822.538 242.812 828.544 249C834.732 255.188 837.826 262.832 837.826 271.932C837.826 275.39 837.462 278.575 836.734 281.487C834.914 288.949 831.456 294.682 826.36 298.686C821.264 302.69 815.167 304.692 808.069 304.692C801.153 304.692 795.875 303.054 792.235 299.778C788.777 296.502 785.683 292.134 782.953 286.674C781.497 283.58 780.132 281.305 778.858 279.849C777.584 278.393 776.128 277.665 774.49 277.665C772.67 277.665 771.032 278.393 769.576 279.849C768.302 281.305 767.119 283.853 766.027 287.493L745.006 355.743C744.642 356.653 744.46 358.018 744.46 359.838C744.46 362.204 745.097 364.206 746.371 365.844C747.827 367.3 749.738 368.756 752.104 370.212C754.288 371.668 755.744 372.851 756.472 373.761C757.2 374.671 757.473 375.854 757.291 377.31C756.927 379.676 755.562 381.405 753.196 382.497C751.012 383.589 747.19 384.135 741.73 384.135H671.842C667.11 384.135 663.743 383.407 661.741 381.951C659.557 380.313 658.738 378.22 659.284 375.672C660.012 373.488 661.923 371.577 665.017 369.939C667.747 368.483 670.022 366.754 671.842 364.752C673.662 362.75 675.209 359.565 676.483 355.197L700.78 276.3C701.144 275.39 701.326 274.116 701.326 272.478C701.326 270.476 700.871 268.929 699.961 267.837C699.233 266.745 697.959 265.38 696.139 263.742C694.319 262.286 693.045 261.012 692.317 259.92C691.589 258.828 691.498 257.372 692.044 255.552C693.136 251.366 698.869 247.726 709.243 244.632C719.617 241.356 730.446 239.718 741.73 239.718C749.192 239.718 755.38 241.447 760.294 244.905C765.208 248.181 768.393 252.913 769.849 259.101C778.585 246.179 790.051 239.718 804.247 239.718ZM920.846 238.353C943.96 238.353 960.704 242.084 971.078 249.546C981.452 256.826 986.639 266.199 986.639 277.665C986.639 281.123 986.275 284.308 985.547 287.22C982.817 299.232 975.173 307.877 962.615 313.155C950.239 318.251 935.588 320.799 918.662 320.799C910.108 320.799 902.1 320.253 894.638 319.161C894.456 328.625 897.004 335.268 902.282 339.09C907.56 342.912 914.931 344.823 924.395 344.823C928.763 344.823 932.949 344.368 936.953 343.458C940.957 342.366 946.053 340.819 952.241 338.817C957.337 336.997 960.795 336.087 962.615 336.087C964.617 336.087 965.618 337.27 965.618 339.636C965.8 346.006 963.434 352.74 958.52 359.838C953.606 366.754 946.326 372.669 936.68 377.583C927.034 382.497 915.386 384.954 901.736 384.954C881.534 384.954 864.972 379.858 852.05 369.666C839.128 359.474 832.667 344.641 832.667 325.167C832.667 319.707 833.395 313.337 834.851 306.057C839.401 283.671 849.32 266.836 864.608 255.552C880.078 244.086 898.824 238.353 920.846 238.353ZM896.549 302.781C897.277 302.963 898.278 303.054 899.552 303.054C907.196 303.054 913.02 299.505 917.024 292.407C921.028 285.309 922.939 277.392 922.757 268.656C922.575 263.56 921.119 261.012 918.389 261.012C916.387 261.012 914.021 262.65 911.291 265.926C908.561 269.02 905.831 273.752 903.101 280.122C900.553 286.492 898.369 294.045 896.549 302.781ZM1080.16 238.353C1091.26 238.353 1101 239.991 1109.37 243.267C1117.74 246.361 1124.2 250.729 1128.75 256.371C1133.49 261.831 1135.85 267.928 1135.85 274.662C1135.85 281.942 1133.3 287.948 1128.21 292.68C1123.29 297.412 1116.56 299.778 1108.01 299.778C1099.27 299.778 1092.45 297.594 1087.53 293.226C1082.62 288.676 1080.16 282.579 1080.16 274.935C1080.16 271.295 1080.71 267.473 1081.8 263.469C1074.15 265.471 1067.33 269.475 1061.32 275.481C1055.5 281.305 1051.59 289.04 1049.58 298.686C1048.49 304.146 1047.95 309.06 1047.95 313.428C1047.95 323.256 1050.68 330.718 1056.14 335.814C1061.6 340.91 1069.42 343.458 1079.61 343.458C1085.44 343.458 1090.44 342.912 1094.63 341.82C1098.82 340.546 1103.09 338.908 1107.46 336.906C1111.1 335.086 1113.74 334.176 1115.38 334.176C1116.47 334.176 1117.2 334.449 1117.56 334.995C1117.93 335.359 1118.11 336.269 1118.11 337.725C1118.29 344.459 1115.47 351.557 1109.64 359.019C1104 366.299 1096.09 372.487 1085.89 377.583C1075.88 382.497 1064.6 384.954 1052.04 384.954C1038.94 384.954 1027.29 382.588 1017.1 377.856C1007.09 372.942 999.261 366.026 993.619 357.108C988.159 348.008 985.429 337.452 985.429 325.44C985.429 319.798 986.157 313.519 987.613 306.603C992.527 284.035 1003.36 267.018 1020.1 255.552C1037.03 244.086 1057.05 238.353 1080.16 238.353ZM1253.72 243.267C1257.18 243.267 1259.82 243.995 1261.64 245.451C1263.64 246.907 1264.64 248.909 1264.64 251.457C1264.64 252.185 1264.46 253.459 1264.1 255.279C1261.73 263.287 1256.27 267.291 1247.72 267.291H1231.88L1211.41 334.722C1210.5 337.452 1210.04 340.273 1210.04 343.185C1210.04 346.461 1210.95 348.736 1212.77 350.01C1214.59 351.284 1217.14 351.921 1220.42 351.921C1223.33 351.921 1226.97 351.557 1231.34 350.829C1233.52 350.283 1235.43 350.01 1237.07 350.01C1238.34 350.01 1239.25 350.465 1239.8 351.375C1240.53 352.103 1240.89 353.104 1240.89 354.378C1241.07 358.018 1238.34 362.477 1232.7 367.755C1227.24 372.851 1219.78 377.31 1210.32 381.132C1200.85 384.772 1190.39 386.592 1178.92 386.592C1166.54 386.592 1156.63 383.771 1149.16 378.129C1141.7 372.487 1137.97 364.752 1137.97 354.924C1137.97 350.374 1138.7 346.006 1140.15 341.82L1157.63 287.766C1158.54 284.672 1158.99 282.215 1158.99 280.395C1158.99 276.755 1158.08 273.661 1156.26 271.113C1154.62 268.565 1152.26 265.926 1149.16 263.196C1146.43 260.648 1144.52 258.555 1143.43 256.917C1142.34 255.097 1142.07 253.004 1142.61 250.638C1143.34 248.272 1144.89 246.452 1147.25 245.178C1149.62 243.904 1153.35 243.267 1158.45 243.267H1173.73L1190.93 226.068C1196.94 220.062 1202.4 215.876 1207.31 213.51C1212.41 211.144 1218.96 209.961 1226.97 209.961C1238.43 209.961 1244.17 214.329 1244.17 223.065C1244.17 225.795 1243.8 228.343 1243.08 230.709L1239.25 243.267H1253.72Z" fill="#F6FCFF"/>
</svg>
