<svg width="644" height="593" viewBox="0 0 644 593" fill="none" xmlns="http://www.w3.org/2000/svg">
<path d="M152.6 215.2C141.4 215.2 131.333 213.133 122.4 209C113.467 204.867 106.333 198.8 101 190.8C95.8 182.667 93.2 172.867 93.2 161.4C93.2 153.4 94.6 144.733 97.4 135.4C103.533 115.4 112.8 101 125.2 92.2C137.6 83.2667 150.867 78.8 165 78.8C172.6 78.8 179.333 79.9333 185.2 82.2C191.067 84.4667 196.467 87.7333 201.4 92L206.8 87.8C210.4 85 213.4 83.0667 215.8 82C218.333 80.9333 221.133 80.4 224.2 80.4C227.533 80.4 230.2 81.1333 232.2 82.6C234.2 84.0667 235.2 86.2 235.2 89C235.2 90.4667 234.933 91.9333 234.4 93.4L223.2 124.6C222 128.2 220.533 130.733 218.8 132.2C217.2 133.667 214.733 134.4 211.4 134.4C207.933 134.4 205.067 133.2 202.8 130.8C200.667 128.267 198.2 124 195.4 118C192.2 111.733 189.6 107.6 187.6 105.6C185.6 103.6 182.667 102.6 178.8 102.6C173.333 102.6 168.067 106 163 112.8C157.933 119.467 153.333 129.533 149.2 143C145.733 154.333 144 163.8 144 171.4C144 178.067 145.267 183.067 147.8 186.4C150.333 189.6 153.733 191.2 158 191.2C164.267 191.2 169.4 189.8 173.4 187C177.533 184.2 181.733 180.4 186 175.6C188.667 172.667 190.8 170.533 192.4 169.2C194.133 167.733 195.933 167 197.8 167C200.2 167 202.733 168.2 205.4 170.6C208.067 173 209.333 175.4 209.2 177.8C209.333 180.733 206.933 185.267 202 191.4C197.2 197.533 190.467 203.067 181.8 208C173.267 212.8 163.533 215.2 152.6 215.2ZM292.877 108.2C308.21 108.2 320.477 111.067 329.677 116.8C338.877 122.4 343.477 131 343.477 142.6C343.477 147 342.677 152 341.077 157.6L332.877 185.2C332.743 185.733 332.677 186.4 332.677 187.2C332.677 189.333 333.543 190.4 335.277 190.4C336.877 190.4 338.21 189.733 339.277 188.4C340.477 186.933 341.277 186.2 341.677 186.2C342.343 186.2 342.877 186.667 343.277 187.6C343.81 188.533 344.077 189.6 344.077 190.8C344.21 194.4 342.81 198.067 339.877 201.8C337.077 205.533 333.277 208.6 328.477 211C323.677 213.4 318.41 214.6 312.677 214.6C305.743 214.6 299.81 213.333 294.877 210.8C289.943 208.267 286.543 204.533 284.677 199.6C280.677 204.4 275.943 208.133 270.477 210.8C265.01 213.333 259.143 214.6 252.877 214.6C245.81 214.6 239.877 213.267 235.077 210.6C230.277 207.8 226.677 204.267 224.277 200C222.01 195.6 220.877 191 220.877 186.2C220.877 184.067 221.077 182 221.477 180C223.61 170.8 228.21 163.867 235.277 159.2C242.477 154.533 251.01 152.2 260.877 152.2C271.943 152.2 282.81 153.933 293.477 157.4L298.477 144.2C300.21 138.6 301.077 134.267 301.077 131.2C300.943 128 299.877 125.6 297.877 124C295.877 122.4 292.81 121.6 288.677 121.6C289.477 123.733 289.877 125.933 289.877 128.2C289.877 133.133 288.01 137.4 284.277 141C280.543 144.6 275.21 146.4 268.277 146.4C261.743 146.4 256.61 145 252.877 142.2C249.277 139.267 247.477 135.667 247.477 131.4C247.477 124.733 251.21 119.2 258.677 114.8C266.143 110.4 277.543 108.2 292.877 108.2ZM281.677 168.8C277.943 168.8 274.877 170.267 272.477 173.2C270.21 176 269.077 179.067 269.077 182.4C269.077 184.533 269.543 186.267 270.477 187.6C271.543 188.933 273.01 189.6 274.877 189.6C276.61 189.6 278.477 188.933 280.477 187.6C282.61 186.133 284.143 184 285.077 181.2L289.277 169.4C287.01 169 284.477 168.8 281.677 168.8ZM476.136 186.4C475.869 186.933 475.736 187.733 475.736 188.8C475.736 189.733 475.936 190.467 476.336 191C476.869 191.533 477.536 191.8 478.336 191.8C479.936 191.8 481.269 191.133 482.336 189.8C483.536 188.333 484.336 187.6 484.736 187.6C485.403 187.6 485.936 188.067 486.336 189C486.736 189.8 486.936 190.8 486.936 192C487.069 195.867 485.803 199.667 483.136 203.4C480.469 207 476.536 210 471.336 212.4C466.269 214.667 460.136 215.8 452.936 215.8C444.136 215.8 437.136 213.8 431.936 209.8C426.736 205.667 424.069 200.2 423.936 193.4C423.936 188.467 425.136 182.933 427.536 176.8L438.536 148C439.203 146.267 439.536 144.867 439.536 143.8C439.536 142.067 438.936 140.733 437.736 139.8C436.669 138.733 435.336 138.2 433.736 138.2C430.803 138.2 428.003 139.6 425.336 142.4C422.669 145.067 420.736 148.4 419.536 152.4L407.136 193.2C406.603 194.667 406.336 196.067 406.336 197.4C406.336 199 406.669 200.333 407.336 201.4C408.003 202.333 408.936 203.333 410.136 204.4C411.069 205.2 411.736 205.933 412.136 206.6C412.536 207.267 412.603 208.067 412.336 209C411.803 210.733 410.536 212 408.536 212.8C406.536 213.6 403.403 214 399.136 214H353.536C350.069 214 347.603 213.467 346.136 212.4C344.536 211.2 343.936 209.667 344.336 207.8C344.869 206.2 346.269 204.8 348.536 203.6C350.536 202.533 352.203 201.267 353.536 199.8C354.869 198.333 356.003 196 356.936 192.8L374.736 135C375.003 134.333 375.136 133.4 375.136 132.2C375.136 130.733 374.803 129.6 374.136 128.8C373.603 128 372.669 127 371.336 125.8C370.003 124.733 369.069 123.8 368.536 123C368.003 122.2 367.936 121.133 368.336 119.8C369.136 116.733 373.336 114.067 380.936 111.8C388.536 109.4 396.469 108.2 404.736 108.2C411.403 108.2 416.669 110.067 420.536 113.8C424.403 117.4 426.136 122.467 425.736 129C431.203 121.133 437.003 115.733 443.136 112.8C449.269 109.733 455.936 108.2 463.136 108.2C471.269 108.2 477.803 110.667 482.736 115.6C487.803 120.533 490.336 126.933 490.336 134.8C490.336 138.933 489.669 143 488.336 147L476.136 186.4Z" fill="#FF6F00"/>
<path d="M308 229.2C313.867 229.2 318.533 231.6 322 236.4C325.6 241.067 327.4 247.467 327.4 255.6C327.4 262.667 326.133 270.267 323.6 278.4C318.667 294.8 310.733 310.267 299.8 324.8C289 339.333 276.533 351 262.4 359.8C248.4 368.6 234.4 373 220.4 373C213.467 373 207.467 371.8 202.4 369.4C197.467 367 193.733 363.8 191.2 359.8C188.533 355.8 187.2 351.533 187.2 347C187.2 345 187.533 342.8 188.2 340.4C189.4 336.667 191.4 333.8 194.2 331.8C197 329.8 200.333 328.8 204.2 328.8C210.333 328.8 215.333 330.867 219.2 335C223.2 339.267 225.733 345.067 226.8 352.4C235.333 352 243.2 348.333 250.4 341.4C243.6 340.2 238.533 337.933 235.2 334.6C232 331.133 229.8 325.8 228.6 318.6L220.6 269.6C220.2 267.067 219.6 265.333 218.8 264.4C218.133 263.333 217.2 262.8 216 262.8C215.067 262.8 213.933 263.267 212.6 264.2C211.4 265.133 210.533 265.6 210 265.6C208.933 265.6 208.4 264.467 208.4 262.2C208.4 260.333 208.733 258.333 209.4 256.2C211.8 248.6 216.267 242.2 222.8 237C229.333 231.667 236.933 229 245.6 229C254.133 229 260.4 231.533 264.4 236.6C268.533 241.667 271.2 249.467 272.4 260L278.4 304C278.8 307.333 280 309 282 309C284.4 309 287.2 306.867 290.4 302.6C293.6 298.2 296.733 292 299.8 284C295.8 280.4 292.733 276.267 290.6 271.6C288.467 266.933 287.4 261.933 287.4 256.6C287.4 252.467 287.933 248.733 289 245.4C290.6 240.067 293.067 236.067 296.4 233.4C299.867 230.6 303.733 229.2 308 229.2ZM403.423 229.2C421.557 229.2 434.89 232.867 443.423 240.2C452.09 247.533 456.423 257.133 456.423 269C456.423 273 455.89 277.467 454.823 282.4C452.29 293.333 447.557 302.933 440.623 311.2C433.69 319.333 425.157 325.667 415.023 330.2C405.023 334.6 394.157 336.8 382.423 336.8C363.89 336.8 350.157 333.133 341.223 325.8C332.423 318.333 328.023 308.467 328.023 296.2C328.023 292.067 328.557 287.467 329.623 282.4C332.157 272 336.957 262.8 344.023 254.8C351.223 246.667 359.957 240.4 370.223 236C380.623 231.467 391.69 229.2 403.423 229.2ZM402.823 247C400.023 247 397.023 249.533 393.823 254.6C390.757 259.533 387.09 268.933 382.823 282.8C378.557 296.667 376.423 306.4 376.423 312C376.423 314.933 376.89 316.933 377.823 318C378.757 318.933 380.023 319.4 381.623 319.4C384.423 319.667 387.29 317.267 390.223 312.2C393.29 307.133 397.09 297.267 401.623 282.6C405.757 269.667 407.823 260.267 407.823 254.4C407.823 251.6 407.357 249.667 406.423 248.6C405.623 247.533 404.423 247 402.823 247ZM576.073 307.4C575.807 308.467 575.673 309.267 575.673 309.8C575.673 310.733 575.873 311.467 576.273 312C576.807 312.533 577.473 312.8 578.273 312.8C579.873 312.8 581.207 312.133 582.273 310.8C583.473 309.333 584.273 308.6 584.673 308.6C585.34 308.6 585.873 309.067 586.273 310C586.807 310.8 587.073 311.8 587.073 313C587.207 316.733 585.873 320.467 583.073 324.2C580.273 327.8 576.34 330.8 571.273 333.2C566.207 335.6 560.54 336.8 554.273 336.8C546.407 336.8 540.14 335.2 535.473 332C530.807 328.8 527.807 324.6 526.473 319.4C521.673 324.733 516.34 328.8 510.473 331.6C504.74 334.267 498.873 335.6 492.873 335.6C483.54 335.6 475.673 333.333 469.273 328.8C463.007 324.133 459.873 317.667 459.873 309.4C459.873 305.667 460.54 301.8 461.873 297.8L474.673 256C475.073 254.8 475.273 253.8 475.273 253C475.273 251.533 474.94 250.4 474.273 249.6C473.607 248.667 472.607 247.733 471.273 246.8C469.94 245.733 469.007 244.8 468.473 244C467.94 243.2 467.873 242.133 468.273 240.8C469.073 237.733 473.273 235.067 480.873 232.8C488.473 230.4 496.407 229.2 504.673 229.2C512.407 229.2 518.073 230.667 521.673 233.6C525.273 236.533 527.073 240.533 527.073 245.6C527.073 248.667 526.607 251.6 525.673 254.4L513.073 296C512.54 297.467 512.273 298.867 512.273 300.2C512.273 302.067 512.807 303.467 513.873 304.4C514.94 305.333 516.34 305.8 518.073 305.8C520.607 305.8 522.673 305.067 524.273 303.6C525.873 302.133 527.473 299.667 529.073 296.2L541.273 256C541.673 254.8 541.873 253.8 541.873 253C541.873 251.533 541.54 250.4 540.873 249.6C540.207 248.667 539.273 247.733 538.073 246.8C536.74 245.733 535.807 244.8 535.273 244C534.74 243.2 534.673 242.133 535.073 240.8C535.74 237.733 539.873 235.067 547.473 232.8C555.073 230.4 563.007 229.2 571.273 229.2C579.007 229.2 584.673 230.667 588.273 233.6C592.007 236.533 593.873 240.467 593.873 245.4C593.873 247.933 593.34 250.933 592.273 254.4L576.073 307.4Z" fill="#FF6F00"/>
<path d="M150.2 367.6C154.467 367.6 158.6 368.533 162.6 370.4C166.733 372.133 170.067 374.6 172.6 377.8C175.267 380.867 176.6 384.2 176.6 387.8C176.6 395.667 171.267 399.6 160.6 399.6C157.533 399.6 155.133 399.4 153.4 399C151.8 398.467 149.867 397.667 147.6 396.6C147.2 397.533 147 398.867 147 400.6C147 402.733 147.333 405.267 148 408.2C148.8 411.133 149.733 413.867 150.8 416.4C153.6 420.533 155 425.467 155 431.2C155 433.733 154.667 436.8 154 440.4C152.4 447.333 148.867 453.667 143.4 459.4C138.067 465.133 131.133 469.667 122.6 473C114.2 476.2 104.933 477.8 94.8 477.8C87.0667 477.8 79.8 477.267 73 476.2C71 477.933 70 480.067 70 482.6C70 484.333 70.8 485.8 72.4 487C74 488.067 76.6667 488.6 80.4 488.6H110.4C120.667 488.6 128.667 490.4 134.4 494C140.133 497.467 143 502.467 143 509C143 511.4 142.6 513.867 141.8 516.4C140.2 521.6 136.533 526.4 130.8 530.8C125.2 535.333 117.267 539 107 541.8C96.7333 544.6 84.2667 546 69.6 546C56.5333 546 45.4667 544.867 36.4 542.6C27.3333 540.333 20.6 537.2 16.2 533.2C11.6667 529.333 9.4 525 9.4 520.2C9.4 519.133 9.66667 517.533 10.2 515.4C11.4 511.533 14.1333 508.4 18.4 506C22.5333 503.467 29.4 501.8 39 501C35.8 497.933 34.2 494.267 34.2 490C34.2 488.533 34.4 487 34.8 485.4C36.9333 478.467 43.2 473.333 53.6 470C43.6 464.533 38.6 456.533 38.6 446C38.6 443.067 39 440 39.8 436.8C41.4 429.867 44.9333 423.6 50.4 418C55.8667 412.267 62.8667 407.733 71.4 404.4C79.9333 401.067 89.2667 399.4 99.4 399.4C115.267 399.4 127.733 401.467 136.8 405.6C134.8 402.533 133.2 399.267 132 395.8C130.933 392.2 130.4 388.933 130.4 386C130.4 380.933 132 376.6 135.2 373C138.533 369.4 143.533 367.6 150.2 367.6ZM106.8 438.6C108.933 431.8 110 426.6 110 423C110 418.467 108.067 416.2 104.2 416.2C100.867 416.2 97.9333 417.867 95.4 421.2C93 424.4 90.5333 430.2 88 438.6C85.8667 445.533 84.8 450.8 84.8 454.4C84.8 458.8 86.6667 461 90.4 461C93.7333 461 96.6667 459.333 99.2 456C101.733 452.667 104.267 446.867 106.8 438.6ZM67 508.8C63.2667 508.8 59.8667 508.6 56.8 508.2C55.2 510.2 54.4 512.867 54.4 516.2C54.5333 519.533 55.8667 521.933 58.4 523.4C61.0667 524.867 65.1333 525.6 70.6 525.6C77.2667 525.6 82.6667 524.6 86.8 522.6C91.0667 520.6 93.2 517.733 93.2 514C93.2 512.4 92.6 511.133 91.4 510.2C90.2 509.267 88.4667 508.8 86.2 508.8H67ZM274.753 478.4C274.486 479.467 274.353 480.267 274.353 480.8C274.353 481.733 274.553 482.467 274.953 483C275.486 483.533 276.153 483.8 276.953 483.8C278.553 483.8 279.886 483.133 280.953 481.8C282.153 480.333 282.953 479.6 283.353 479.6C284.02 479.6 284.553 480.067 284.953 481C285.486 481.8 285.753 482.8 285.753 484C285.886 487.733 284.553 491.467 281.753 495.2C278.953 498.8 275.02 501.8 269.953 504.2C264.886 506.6 259.22 507.8 252.953 507.8C245.086 507.8 238.82 506.2 234.153 503C229.486 499.8 226.486 495.6 225.153 490.4C220.353 495.733 215.02 499.8 209.153 502.6C203.42 505.267 197.553 506.6 191.553 506.6C182.22 506.6 174.353 504.333 167.953 499.8C161.686 495.133 158.553 488.667 158.553 480.4C158.553 476.667 159.22 472.8 160.553 468.8L173.353 427C173.753 425.8 173.953 424.8 173.953 424C173.953 422.533 173.62 421.4 172.953 420.6C172.286 419.667 171.286 418.733 169.953 417.8C168.62 416.733 167.686 415.8 167.153 415C166.62 414.2 166.553 413.133 166.953 411.8C167.753 408.733 171.953 406.067 179.553 403.8C187.153 401.4 195.086 400.2 203.353 400.2C211.086 400.2 216.753 401.667 220.353 404.6C223.953 407.533 225.753 411.533 225.753 416.6C225.753 419.667 225.286 422.6 224.353 425.4L211.753 467C211.22 468.467 210.953 469.867 210.953 471.2C210.953 473.067 211.486 474.467 212.553 475.4C213.62 476.333 215.02 476.8 216.753 476.8C219.286 476.8 221.353 476.067 222.953 474.6C224.553 473.133 226.153 470.667 227.753 467.2L239.953 427C240.353 425.8 240.553 424.8 240.553 424C240.553 422.533 240.22 421.4 239.553 420.6C238.886 419.667 237.953 418.733 236.753 417.8C235.42 416.733 234.486 415.8 233.953 415C233.42 414.2 233.353 413.133 233.753 411.8C234.42 408.733 238.553 406.067 246.153 403.8C253.753 401.4 261.686 400.2 269.953 400.2C277.686 400.2 283.353 401.667 286.953 404.6C290.686 407.533 292.553 411.467 292.553 416.4C292.553 418.933 292.02 421.933 290.953 425.4L274.753 478.4ZM360.863 399.2C377.796 399.2 390.063 401.933 397.663 407.4C405.263 412.733 409.063 419.6 409.063 428C409.063 430.533 408.796 432.867 408.263 435C406.263 443.8 400.663 450.133 391.463 454C382.396 457.733 371.663 459.6 359.263 459.6C352.996 459.6 347.129 459.2 341.663 458.4C341.529 465.333 343.396 470.2 347.263 473C351.129 475.8 356.529 477.2 363.463 477.2C366.663 477.2 369.729 476.867 372.663 476.2C375.596 475.4 379.329 474.267 383.863 472.8C387.596 471.467 390.129 470.8 391.463 470.8C392.929 470.8 393.663 471.667 393.663 473.4C393.796 478.067 392.063 483 388.463 488.2C384.863 493.267 379.529 497.6 372.463 501.2C365.396 504.8 356.863 506.6 346.863 506.6C332.063 506.6 319.929 502.867 310.463 495.4C300.996 487.933 296.263 477.067 296.263 462.8C296.263 458.8 296.796 454.133 297.863 448.8C301.196 432.4 308.463 420.067 319.663 411.8C330.996 403.4 344.729 399.2 360.863 399.2ZM343.062 446.4C343.596 446.533 344.329 446.6 345.263 446.6C350.863 446.6 355.129 444 358.063 438.8C360.996 433.6 362.396 427.8 362.263 421.4C362.129 417.667 361.063 415.8 359.063 415.8C357.596 415.8 355.863 417 353.863 419.4C351.863 421.667 349.863 425.133 347.863 429.8C345.996 434.467 344.396 440 343.062 446.4ZM470.777 398.4C481.843 398.4 491.377 399.4 499.377 401.4C507.51 403.4 513.71 406.2 517.977 409.8C522.377 413.4 524.577 417.467 524.577 422C524.577 426.667 522.71 430.467 518.977 433.4C515.377 436.333 510.31 437.8 503.777 437.8C497.11 437.8 491.443 436.133 486.777 432.8C482.243 429.467 479.977 425.267 479.977 420.2C479.977 418.467 480.243 416.8 480.777 415.2C478.377 414.533 476.243 414.2 474.377 414.2C471.043 414.2 468.243 415 465.977 416.6C463.843 418.2 462.843 420.467 462.977 423.4C462.977 426.867 464.71 429.8 468.177 432.2C471.643 434.6 477.243 437.6 484.977 441.2C491.643 444.133 497.11 446.867 501.377 449.4C505.777 451.8 509.443 454.867 512.377 458.6C515.443 462.333 516.977 466.733 516.977 471.8C516.977 472.867 516.71 474.867 516.177 477.8C514.043 486.733 508.11 493.8 498.377 499C488.643 504.2 475.843 506.8 459.977 506.8C442.11 506.8 427.91 504.4 417.377 499.6C406.977 494.8 401.777 488.2 401.777 479.8C401.777 474.067 403.51 469.733 406.977 466.8C410.443 463.867 415.043 462.4 420.777 462.4C427.443 462.4 433.11 464.467 437.777 468.6C442.577 472.733 444.977 478 444.977 484.4C444.977 486.133 444.777 487.933 444.377 489.8C447.577 490.6 450.643 491 453.577 491C457.043 491 459.91 490.067 462.177 488.2C464.443 486.333 465.577 483.733 465.577 480.4C465.443 477.333 463.91 474.733 460.977 472.6C458.043 470.333 453.377 467.667 446.977 464.6C440.977 461.8 436.043 459.2 432.177 456.8C428.31 454.267 424.977 451.133 422.177 447.4C419.51 443.667 418.177 439.267 418.177 434.2C418.177 423.267 422.71 414.6 431.777 408.2C440.977 401.667 453.977 398.4 470.777 398.4ZM589.331 398.4C600.398 398.4 609.931 399.4 617.931 401.4C626.065 403.4 632.265 406.2 636.531 409.8C640.931 413.4 643.131 417.467 643.131 422C643.131 426.667 641.265 430.467 637.531 433.4C633.931 436.333 628.865 437.8 622.331 437.8C615.665 437.8 609.998 436.133 605.331 432.8C600.798 429.467 598.531 425.267 598.531 420.2C598.531 418.467 598.798 416.8 599.331 415.2C596.931 414.533 594.798 414.2 592.931 414.2C589.598 414.2 586.798 415 584.531 416.6C582.398 418.2 581.398 420.467 581.531 423.4C581.531 426.867 583.265 429.8 586.731 432.2C590.198 434.6 595.798 437.6 603.531 441.2C610.198 444.133 615.665 446.867 619.931 449.4C624.331 451.8 627.998 454.867 630.931 458.6C633.998 462.333 635.531 466.733 635.531 471.8C635.531 472.867 635.265 474.867 634.731 477.8C632.598 486.733 626.665 493.8 616.931 499C607.198 504.2 594.398 506.8 578.531 506.8C560.665 506.8 546.465 504.4 535.931 499.6C525.531 494.8 520.331 488.2 520.331 479.8C520.331 474.067 522.065 469.733 525.531 466.8C528.998 463.867 533.598 462.4 539.331 462.4C545.998 462.4 551.665 464.467 556.331 468.6C561.131 472.733 563.531 478 563.531 484.4C563.531 486.133 563.331 487.933 562.931 489.8C566.131 490.6 569.198 491 572.131 491C575.598 491 578.465 490.067 580.731 488.2C582.998 486.333 584.131 483.733 584.131 480.4C583.998 477.333 582.465 474.733 579.531 472.6C576.598 470.333 571.931 467.667 565.531 464.6C559.531 461.8 554.598 459.2 550.731 456.8C546.865 454.267 543.531 451.133 540.731 447.4C538.065 443.667 536.731 439.267 536.731 434.2C536.731 423.267 541.265 414.6 550.331 408.2C559.531 401.667 572.531 398.4 589.331 398.4Z" fill="black"/>
<path d="M143.6 206.2C132.4 206.2 122.333 204.133 113.4 200C104.467 195.867 97.3333 189.8 92 181.8C86.8 173.667 84.2 163.867 84.2 152.4C84.2 144.4 85.6 135.733 88.4 126.4C94.5333 106.4 103.8 92 116.2 83.2C128.6 74.2667 141.867 69.8 156 69.8C163.6 69.8 170.333 70.9333 176.2 73.2C182.067 75.4667 187.467 78.7333 192.4 83L197.8 78.8C201.4 76 204.4 74.0667 206.8 73C209.333 71.9333 212.133 71.4 215.2 71.4C218.533 71.4 221.2 72.1333 223.2 73.6C225.2 75.0667 226.2 77.2 226.2 80C226.2 81.4667 225.933 82.9333 225.4 84.4L214.2 115.6C213 119.2 211.533 121.733 209.8 123.2C208.2 124.667 205.733 125.4 202.4 125.4C198.933 125.4 196.067 124.2 193.8 121.8C191.667 119.267 189.2 115 186.4 109C183.2 102.733 180.6 98.6 178.6 96.6C176.6 94.6 173.667 93.6 169.8 93.6C164.333 93.6 159.067 97 154 103.8C148.933 110.467 144.333 120.533 140.2 134C136.733 145.333 135 154.8 135 162.4C135 169.067 136.267 174.067 138.8 177.4C141.333 180.6 144.733 182.2 149 182.2C155.267 182.2 160.4 180.8 164.4 178C168.533 175.2 172.733 171.4 177 166.6C179.667 163.667 181.8 161.533 183.4 160.2C185.133 158.733 186.933 158 188.8 158C191.2 158 193.733 159.2 196.4 161.6C199.067 164 200.333 166.4 200.2 168.8C200.333 171.733 197.933 176.267 193 182.4C188.2 188.533 181.467 194.067 172.8 199C164.267 203.8 154.533 206.2 143.6 206.2ZM283.877 99.2C299.21 99.2 311.477 102.067 320.677 107.8C329.877 113.4 334.477 122 334.477 133.6C334.477 138 333.677 143 332.077 148.6L323.877 176.2C323.743 176.733 323.677 177.4 323.677 178.2C323.677 180.333 324.543 181.4 326.277 181.4C327.877 181.4 329.21 180.733 330.277 179.4C331.477 177.933 332.277 177.2 332.677 177.2C333.343 177.2 333.877 177.667 334.277 178.6C334.81 179.533 335.077 180.6 335.077 181.8C335.21 185.4 333.81 189.067 330.877 192.8C328.077 196.533 324.277 199.6 319.477 202C314.677 204.4 309.41 205.6 303.677 205.6C296.743 205.6 290.81 204.333 285.877 201.8C280.943 199.267 277.543 195.533 275.677 190.6C271.677 195.4 266.943 199.133 261.477 201.8C256.01 204.333 250.143 205.6 243.877 205.6C236.81 205.6 230.877 204.267 226.077 201.6C221.277 198.8 217.677 195.267 215.277 191C213.01 186.6 211.877 182 211.877 177.2C211.877 175.067 212.077 173 212.477 171C214.61 161.8 219.21 154.867 226.277 150.2C233.477 145.533 242.01 143.2 251.877 143.2C262.943 143.2 273.81 144.933 284.477 148.4L289.477 135.2C291.21 129.6 292.077 125.267 292.077 122.2C291.943 119 290.877 116.6 288.877 115C286.877 113.4 283.81 112.6 279.677 112.6C280.477 114.733 280.877 116.933 280.877 119.2C280.877 124.133 279.01 128.4 275.277 132C271.543 135.6 266.21 137.4 259.277 137.4C252.743 137.4 247.61 136 243.877 133.2C240.277 130.267 238.477 126.667 238.477 122.4C238.477 115.733 242.21 110.2 249.677 105.8C257.143 101.4 268.543 99.2 283.877 99.2ZM272.677 159.8C268.943 159.8 265.877 161.267 263.477 164.2C261.21 167 260.077 170.067 260.077 173.4C260.077 175.533 260.543 177.267 261.477 178.6C262.543 179.933 264.01 180.6 265.877 180.6C267.61 180.6 269.477 179.933 271.477 178.6C273.61 177.133 275.143 175 276.077 172.2L280.277 160.4C278.01 160 275.477 159.8 272.677 159.8ZM467.136 177.4C466.869 177.933 466.736 178.733 466.736 179.8C466.736 180.733 466.936 181.467 467.336 182C467.869 182.533 468.536 182.8 469.336 182.8C470.936 182.8 472.269 182.133 473.336 180.8C474.536 179.333 475.336 178.6 475.736 178.6C476.403 178.6 476.936 179.067 477.336 180C477.736 180.8 477.936 181.8 477.936 183C478.069 186.867 476.803 190.667 474.136 194.4C471.469 198 467.536 201 462.336 203.4C457.269 205.667 451.136 206.8 443.936 206.8C435.136 206.8 428.136 204.8 422.936 200.8C417.736 196.667 415.069 191.2 414.936 184.4C414.936 179.467 416.136 173.933 418.536 167.8L429.536 139C430.203 137.267 430.536 135.867 430.536 134.8C430.536 133.067 429.936 131.733 428.736 130.8C427.669 129.733 426.336 129.2 424.736 129.2C421.803 129.2 419.003 130.6 416.336 133.4C413.669 136.067 411.736 139.4 410.536 143.4L398.136 184.2C397.603 185.667 397.336 187.067 397.336 188.4C397.336 190 397.669 191.333 398.336 192.4C399.003 193.333 399.936 194.333 401.136 195.4C402.069 196.2 402.736 196.933 403.136 197.6C403.536 198.267 403.603 199.067 403.336 200C402.803 201.733 401.536 203 399.536 203.8C397.536 204.6 394.403 205 390.136 205H344.536C341.069 205 338.603 204.467 337.136 203.4C335.536 202.2 334.936 200.667 335.336 198.8C335.869 197.2 337.269 195.8 339.536 194.6C341.536 193.533 343.203 192.267 344.536 190.8C345.869 189.333 347.003 187 347.936 183.8L365.736 126C366.003 125.333 366.136 124.4 366.136 123.2C366.136 121.733 365.803 120.6 365.136 119.8C364.603 119 363.669 118 362.336 116.8C361.003 115.733 360.069 114.8 359.536 114C359.003 113.2 358.936 112.133 359.336 110.8C360.136 107.733 364.336 105.067 371.936 102.8C379.536 100.4 387.469 99.2 395.736 99.2C402.403 99.2 407.669 101.067 411.536 104.8C415.403 108.4 417.136 113.467 416.736 120C422.203 112.133 428.003 106.733 434.136 103.8C440.269 100.733 446.936 99.2 454.136 99.2C462.269 99.2 468.803 101.667 473.736 106.6C478.803 111.533 481.336 117.933 481.336 125.8C481.336 129.933 480.669 134 479.336 138L467.136 177.4Z" fill="black"/>
<path d="M299 220.2C304.867 220.2 309.533 222.6 313 227.4C316.6 232.067 318.4 238.467 318.4 246.6C318.4 253.667 317.133 261.267 314.6 269.4C309.667 285.8 301.733 301.267 290.8 315.8C280 330.333 267.533 342 253.4 350.8C239.4 359.6 225.4 364 211.4 364C204.467 364 198.467 362.8 193.4 360.4C188.467 358 184.733 354.8 182.2 350.8C179.533 346.8 178.2 342.533 178.2 338C178.2 336 178.533 333.8 179.2 331.4C180.4 327.667 182.4 324.8 185.2 322.8C188 320.8 191.333 319.8 195.2 319.8C201.333 319.8 206.333 321.867 210.2 326C214.2 330.267 216.733 336.067 217.8 343.4C226.333 343 234.2 339.333 241.4 332.4C234.6 331.2 229.533 328.933 226.2 325.6C223 322.133 220.8 316.8 219.6 309.6L211.6 260.6C211.2 258.067 210.6 256.333 209.8 255.4C209.133 254.333 208.2 253.8 207 253.8C206.067 253.8 204.933 254.267 203.6 255.2C202.4 256.133 201.533 256.6 201 256.6C199.933 256.6 199.4 255.467 199.4 253.2C199.4 251.333 199.733 249.333 200.4 247.2C202.8 239.6 207.267 233.2 213.8 228C220.333 222.667 227.933 220 236.6 220C245.133 220 251.4 222.533 255.4 227.6C259.533 232.667 262.2 240.467 263.4 251L269.4 295C269.8 298.333 271 300 273 300C275.4 300 278.2 297.867 281.4 293.6C284.6 289.2 287.733 283 290.8 275C286.8 271.4 283.733 267.267 281.6 262.6C279.467 257.933 278.4 252.933 278.4 247.6C278.4 243.467 278.933 239.733 280 236.4C281.6 231.067 284.067 227.067 287.4 224.4C290.867 221.6 294.733 220.2 299 220.2ZM394.423 220.2C412.557 220.2 425.89 223.867 434.423 231.2C443.09 238.533 447.423 248.133 447.423 260C447.423 264 446.89 268.467 445.823 273.4C443.29 284.333 438.557 293.933 431.623 302.2C424.69 310.333 416.157 316.667 406.023 321.2C396.023 325.6 385.157 327.8 373.423 327.8C354.89 327.8 341.157 324.133 332.223 316.8C323.423 309.333 319.023 299.467 319.023 287.2C319.023 283.067 319.557 278.467 320.623 273.4C323.157 263 327.957 253.8 335.023 245.8C342.223 237.667 350.957 231.4 361.223 227C371.623 222.467 382.69 220.2 394.423 220.2ZM393.823 238C391.023 238 388.023 240.533 384.823 245.6C381.757 250.533 378.09 259.933 373.823 273.8C369.557 287.667 367.423 297.4 367.423 303C367.423 305.933 367.89 307.933 368.823 309C369.757 309.933 371.023 310.4 372.623 310.4C375.423 310.667 378.29 308.267 381.223 303.2C384.29 298.133 388.09 288.267 392.623 273.6C396.757 260.667 398.823 251.267 398.823 245.4C398.823 242.6 398.357 240.667 397.423 239.6C396.623 238.533 395.423 238 393.823 238ZM567.073 298.4C566.807 299.467 566.673 300.267 566.673 300.8C566.673 301.733 566.873 302.467 567.273 303C567.807 303.533 568.473 303.8 569.273 303.8C570.873 303.8 572.207 303.133 573.273 301.8C574.473 300.333 575.273 299.6 575.673 299.6C576.34 299.6 576.873 300.067 577.273 301C577.807 301.8 578.073 302.8 578.073 304C578.207 307.733 576.873 311.467 574.073 315.2C571.273 318.8 567.34 321.8 562.273 324.2C557.207 326.6 551.54 327.8 545.273 327.8C537.407 327.8 531.14 326.2 526.473 323C521.807 319.8 518.807 315.6 517.473 310.4C512.673 315.733 507.34 319.8 501.473 322.6C495.74 325.267 489.873 326.6 483.873 326.6C474.54 326.6 466.673 324.333 460.273 319.8C454.007 315.133 450.873 308.667 450.873 300.4C450.873 296.667 451.54 292.8 452.873 288.8L465.673 247C466.073 245.8 466.273 244.8 466.273 244C466.273 242.533 465.94 241.4 465.273 240.6C464.607 239.667 463.607 238.733 462.273 237.8C460.94 236.733 460.007 235.8 459.473 235C458.94 234.2 458.873 233.133 459.273 231.8C460.073 228.733 464.273 226.067 471.873 223.8C479.473 221.4 487.407 220.2 495.673 220.2C503.407 220.2 509.073 221.667 512.673 224.6C516.273 227.533 518.073 231.533 518.073 236.6C518.073 239.667 517.607 242.6 516.673 245.4L504.073 287C503.54 288.467 503.273 289.867 503.273 291.2C503.273 293.067 503.807 294.467 504.873 295.4C505.94 296.333 507.34 296.8 509.073 296.8C511.607 296.8 513.673 296.067 515.273 294.6C516.873 293.133 518.473 290.667 520.073 287.2L532.273 247C532.673 245.8 532.873 244.8 532.873 244C532.873 242.533 532.54 241.4 531.873 240.6C531.207 239.667 530.273 238.733 529.073 237.8C527.74 236.733 526.807 235.8 526.273 235C525.74 234.2 525.673 233.133 526.073 231.8C526.74 228.733 530.873 226.067 538.473 223.8C546.073 221.4 554.007 220.2 562.273 220.2C570.007 220.2 575.673 221.667 579.273 224.6C583.007 227.533 584.873 231.467 584.873 236.4C584.873 238.933 584.34 241.933 583.273 245.4L567.073 298.4Z" fill="black"/>
<path d="M299 220.2C304.867 220.2 309.533 222.6 313 227.4C316.6 232.067 318.4 238.467 318.4 246.6C318.4 253.667 317.133 261.267 314.6 269.4C309.667 285.8 301.733 301.267 290.8 315.8C280 330.333 267.533 342 253.4 350.8C239.4 359.6 225.4 364 211.4 364C204.467 364 198.467 362.8 193.4 360.4C188.467 358 184.733 354.8 182.2 350.8C179.533 346.8 178.2 342.533 178.2 338C178.2 336 178.533 333.8 179.2 331.4C180.4 327.667 182.4 324.8 185.2 322.8C188 320.8 191.333 319.8 195.2 319.8C201.333 319.8 206.333 321.867 210.2 326C214.2 330.267 216.733 336.067 217.8 343.4C226.333 343 234.2 339.333 241.4 332.4C234.6 331.2 229.533 328.933 226.2 325.6C223 322.133 220.8 316.8 219.6 309.6L211.6 260.6C211.2 258.067 210.6 256.333 209.8 255.4C209.133 254.333 208.2 253.8 207 253.8C206.067 253.8 204.933 254.267 203.6 255.2C202.4 256.133 201.533 256.6 201 256.6C199.933 256.6 199.4 255.467 199.4 253.2C199.4 251.333 199.733 249.333 200.4 247.2C202.8 239.6 207.267 233.2 213.8 228C220.333 222.667 227.933 220 236.6 220C245.133 220 251.4 222.533 255.4 227.6C259.533 232.667 262.2 240.467 263.4 251L269.4 295C269.8 298.333 271 300 273 300C275.4 300 278.2 297.867 281.4 293.6C284.6 289.2 287.733 283 290.8 275C286.8 271.4 283.733 267.267 281.6 262.6C279.467 257.933 278.4 252.933 278.4 247.6C278.4 243.467 278.933 239.733 280 236.4C281.6 231.067 284.067 227.067 287.4 224.4C290.867 221.6 294.733 220.2 299 220.2ZM394.423 220.2C412.557 220.2 425.89 223.867 434.423 231.2C443.09 238.533 447.423 248.133 447.423 260C447.423 264 446.89 268.467 445.823 273.4C443.29 284.333 438.557 293.933 431.623 302.2C424.69 310.333 416.157 316.667 406.023 321.2C396.023 325.6 385.157 327.8 373.423 327.8C354.89 327.8 341.157 324.133 332.223 316.8C323.423 309.333 319.023 299.467 319.023 287.2C319.023 283.067 319.557 278.467 320.623 273.4C323.157 263 327.957 253.8 335.023 245.8C342.223 237.667 350.957 231.4 361.223 227C371.623 222.467 382.69 220.2 394.423 220.2ZM393.823 238C391.023 238 388.023 240.533 384.823 245.6C381.757 250.533 378.09 259.933 373.823 273.8C369.557 287.667 367.423 297.4 367.423 303C367.423 305.933 367.89 307.933 368.823 309C369.757 309.933 371.023 310.4 372.623 310.4C375.423 310.667 378.29 308.267 381.223 303.2C384.29 298.133 388.09 288.267 392.623 273.6C396.757 260.667 398.823 251.267 398.823 245.4C398.823 242.6 398.357 240.667 397.423 239.6C396.623 238.533 395.423 238 393.823 238ZM567.073 298.4C566.807 299.467 566.673 300.267 566.673 300.8C566.673 301.733 566.873 302.467 567.273 303C567.807 303.533 568.473 303.8 569.273 303.8C570.873 303.8 572.207 303.133 573.273 301.8C574.473 300.333 575.273 299.6 575.673 299.6C576.34 299.6 576.873 300.067 577.273 301C577.807 301.8 578.073 302.8 578.073 304C578.207 307.733 576.873 311.467 574.073 315.2C571.273 318.8 567.34 321.8 562.273 324.2C557.207 326.6 551.54 327.8 545.273 327.8C537.407 327.8 531.14 326.2 526.473 323C521.807 319.8 518.807 315.6 517.473 310.4C512.673 315.733 507.34 319.8 501.473 322.6C495.74 325.267 489.873 326.6 483.873 326.6C474.54 326.6 466.673 324.333 460.273 319.8C454.007 315.133 450.873 308.667 450.873 300.4C450.873 296.667 451.54 292.8 452.873 288.8L465.673 247C466.073 245.8 466.273 244.8 466.273 244C466.273 242.533 465.94 241.4 465.273 240.6C464.607 239.667 463.607 238.733 462.273 237.8C460.94 236.733 460.007 235.8 459.473 235C458.94 234.2 458.873 233.133 459.273 231.8C460.073 228.733 464.273 226.067 471.873 223.8C479.473 221.4 487.407 220.2 495.673 220.2C503.407 220.2 509.073 221.667 512.673 224.6C516.273 227.533 518.073 231.533 518.073 236.6C518.073 239.667 517.607 242.6 516.673 245.4L504.073 287C503.54 288.467 503.273 289.867 503.273 291.2C503.273 293.067 503.807 294.467 504.873 295.4C505.94 296.333 507.34 296.8 509.073 296.8C511.607 296.8 513.673 296.067 515.273 294.6C516.873 293.133 518.473 290.667 520.073 287.2L532.273 247C532.673 245.8 532.873 244.8 532.873 244C532.873 242.533 532.54 241.4 531.873 240.6C531.207 239.667 530.273 238.733 529.073 237.8C527.74 236.733 526.807 235.8 526.273 235C525.74 234.2 525.673 233.133 526.073 231.8C526.74 228.733 530.873 226.067 538.473 223.8C546.073 221.4 554.007 220.2 562.273 220.2C570.007 220.2 575.673 221.667 579.273 224.6C583.007 227.533 584.873 231.467 584.873 236.4C584.873 238.933 584.34 241.933 583.273 245.4L567.073 298.4Z" fill="black"/>
<path d="M141.2 358.6C145.467 358.6 149.6 359.533 153.6 361.4C157.733 363.133 161.067 365.6 163.6 368.8C166.267 371.867 167.6 375.2 167.6 378.8C167.6 386.667 162.267 390.6 151.6 390.6C148.533 390.6 146.133 390.4 144.4 390C142.8 389.467 140.867 388.667 138.6 387.6C138.2 388.533 138 389.867 138 391.6C138 393.733 138.333 396.267 139 399.2C139.8 402.133 140.733 404.867 141.8 407.4C144.6 411.533 146 416.467 146 422.2C146 424.733 145.667 427.8 145 431.4C143.4 438.333 139.867 444.667 134.4 450.4C129.067 456.133 122.133 460.667 113.6 464C105.2 467.2 95.9333 468.8 85.8 468.8C78.0667 468.8 70.8 468.267 64 467.2C62 468.933 61 471.067 61 473.6C61 475.333 61.8 476.8 63.4 478C65 479.067 67.6667 479.6 71.4 479.6H101.4C111.667 479.6 119.667 481.4 125.4 485C131.133 488.467 134 493.467 134 500C134 502.4 133.6 504.867 132.8 507.4C131.2 512.6 127.533 517.4 121.8 521.8C116.2 526.333 108.267 530 98 532.8C87.7333 535.6 75.2667 537 60.6 537C47.5333 537 36.4667 535.867 27.4 533.6C18.3333 531.333 11.6 528.2 7.2 524.2C2.66667 520.333 0.399999 516 0.399999 511.2C0.399999 510.133 0.666666 508.533 1.2 506.4C2.4 502.533 5.13333 499.4 9.4 497C13.5333 494.467 20.4 492.8 30 492C26.8 488.933 25.2 485.267 25.2 481C25.2 479.533 25.4 478 25.8 476.4C27.9333 469.467 34.2 464.333 44.6 461C34.6 455.533 29.6 447.533 29.6 437C29.6 434.067 30 431 30.8 427.8C32.4 420.867 35.9333 414.6 41.4 409C46.8667 403.267 53.8667 398.733 62.4 395.4C70.9333 392.067 80.2667 390.4 90.4 390.4C106.267 390.4 118.733 392.467 127.8 396.6C125.8 393.533 124.2 390.267 123 386.8C121.933 383.2 121.4 379.933 121.4 377C121.4 371.933 123 367.6 126.2 364C129.533 360.4 134.533 358.6 141.2 358.6ZM97.8 429.6C99.9333 422.8 101 417.6 101 414C101 409.467 99.0667 407.2 95.2 407.2C91.8667 407.2 88.9333 408.867 86.4 412.2C84 415.4 81.5333 421.2 79 429.6C76.8667 436.533 75.8 441.8 75.8 445.4C75.8 449.8 77.6667 452 81.4 452C84.7333 452 87.6667 450.333 90.2 447C92.7333 443.667 95.2667 437.867 97.8 429.6ZM58 499.8C54.2667 499.8 50.8667 499.6 47.8 499.2C46.2 501.2 45.4 503.867 45.4 507.2C45.5333 510.533 46.8667 512.933 49.4 514.4C52.0667 515.867 56.1333 516.6 61.6 516.6C68.2667 516.6 73.6667 515.6 77.8 513.6C82.0667 511.6 84.2 508.733 84.2 505C84.2 503.4 83.6 502.133 82.4 501.2C81.2 500.267 79.4667 499.8 77.2 499.8H58ZM265.753 469.4C265.486 470.467 265.353 471.267 265.353 471.8C265.353 472.733 265.553 473.467 265.953 474C266.486 474.533 267.153 474.8 267.953 474.8C269.553 474.8 270.886 474.133 271.953 472.8C273.153 471.333 273.953 470.6 274.353 470.6C275.02 470.6 275.553 471.067 275.953 472C276.486 472.8 276.753 473.8 276.753 475C276.886 478.733 275.553 482.467 272.753 486.2C269.953 489.8 266.02 492.8 260.953 495.2C255.886 497.6 250.22 498.8 243.953 498.8C236.086 498.8 229.82 497.2 225.153 494C220.486 490.8 217.486 486.6 216.153 481.4C211.353 486.733 206.02 490.8 200.153 493.6C194.42 496.267 188.553 497.6 182.553 497.6C173.22 497.6 165.353 495.333 158.953 490.8C152.686 486.133 149.553 479.667 149.553 471.4C149.553 467.667 150.22 463.8 151.553 459.8L164.353 418C164.753 416.8 164.953 415.8 164.953 415C164.953 413.533 164.62 412.4 163.953 411.6C163.286 410.667 162.286 409.733 160.953 408.8C159.62 407.733 158.686 406.8 158.153 406C157.62 405.2 157.553 404.133 157.953 402.8C158.753 399.733 162.953 397.067 170.553 394.8C178.153 392.4 186.086 391.2 194.353 391.2C202.086 391.2 207.753 392.667 211.353 395.6C214.953 398.533 216.753 402.533 216.753 407.6C216.753 410.667 216.286 413.6 215.353 416.4L202.753 458C202.22 459.467 201.953 460.867 201.953 462.2C201.953 464.067 202.486 465.467 203.553 466.4C204.62 467.333 206.02 467.8 207.753 467.8C210.286 467.8 212.353 467.067 213.953 465.6C215.553 464.133 217.153 461.667 218.753 458.2L230.953 418C231.353 416.8 231.553 415.8 231.553 415C231.553 413.533 231.22 412.4 230.553 411.6C229.886 410.667 228.953 409.733 227.753 408.8C226.42 407.733 225.486 406.8 224.953 406C224.42 405.2 224.353 404.133 224.753 402.8C225.42 399.733 229.553 397.067 237.153 394.8C244.753 392.4 252.686 391.2 260.953 391.2C268.686 391.2 274.353 392.667 277.953 395.6C281.686 398.533 283.553 402.467 283.553 407.4C283.553 409.933 283.02 412.933 281.953 416.4L265.753 469.4ZM351.863 390.2C368.796 390.2 381.063 392.933 388.663 398.4C396.263 403.733 400.063 410.6 400.063 419C400.063 421.533 399.796 423.867 399.263 426C397.263 434.8 391.663 441.133 382.463 445C373.396 448.733 362.663 450.6 350.263 450.6C343.996 450.6 338.129 450.2 332.663 449.4C332.529 456.333 334.396 461.2 338.263 464C342.129 466.8 347.529 468.2 354.463 468.2C357.663 468.2 360.729 467.867 363.663 467.2C366.596 466.4 370.329 465.267 374.863 463.8C378.596 462.467 381.129 461.8 382.463 461.8C383.929 461.8 384.663 462.667 384.663 464.4C384.796 469.067 383.063 474 379.463 479.2C375.863 484.267 370.529 488.6 363.463 492.2C356.396 495.8 347.863 497.6 337.863 497.6C323.063 497.6 310.929 493.867 301.463 486.4C291.996 478.933 287.263 468.067 287.263 453.8C287.263 449.8 287.796 445.133 288.863 439.8C292.196 423.4 299.463 411.067 310.663 402.8C321.996 394.4 335.729 390.2 351.863 390.2ZM334.062 437.4C334.596 437.533 335.329 437.6 336.263 437.6C341.863 437.6 346.129 435 349.063 429.8C351.996 424.6 353.396 418.8 353.263 412.4C353.129 408.667 352.063 406.8 350.063 406.8C348.596 406.8 346.863 408 344.863 410.4C342.863 412.667 340.863 416.133 338.863 420.8C336.996 425.467 335.396 431 334.062 437.4ZM461.777 389.4C472.843 389.4 482.377 390.4 490.377 392.4C498.51 394.4 504.71 397.2 508.977 400.8C513.377 404.4 515.577 408.467 515.577 413C515.577 417.667 513.71 421.467 509.977 424.4C506.377 427.333 501.31 428.8 494.777 428.8C488.11 428.8 482.443 427.133 477.777 423.8C473.243 420.467 470.977 416.267 470.977 411.2C470.977 409.467 471.243 407.8 471.777 406.2C469.377 405.533 467.243 405.2 465.377 405.2C462.043 405.2 459.243 406 456.977 407.6C454.843 409.2 453.843 411.467 453.977 414.4C453.977 417.867 455.71 420.8 459.177 423.2C462.643 425.6 468.243 428.6 475.977 432.2C482.643 435.133 488.11 437.867 492.377 440.4C496.777 442.8 500.443 445.867 503.377 449.6C506.443 453.333 507.977 457.733 507.977 462.8C507.977 463.867 507.71 465.867 507.177 468.8C505.043 477.733 499.11 484.8 489.377 490C479.643 495.2 466.843 497.8 450.977 497.8C433.11 497.8 418.91 495.4 408.377 490.6C397.977 485.8 392.777 479.2 392.777 470.8C392.777 465.067 394.51 460.733 397.977 457.8C401.443 454.867 406.043 453.4 411.777 453.4C418.443 453.4 424.11 455.467 428.777 459.6C433.577 463.733 435.977 469 435.977 475.4C435.977 477.133 435.777 478.933 435.377 480.8C438.577 481.6 441.643 482 444.577 482C448.043 482 450.91 481.067 453.177 479.2C455.443 477.333 456.577 474.733 456.577 471.4C456.443 468.333 454.91 465.733 451.977 463.6C449.043 461.333 444.377 458.667 437.977 455.6C431.977 452.8 427.043 450.2 423.177 447.8C419.31 445.267 415.977 442.133 413.177 438.4C410.51 434.667 409.177 430.267 409.177 425.2C409.177 414.267 413.71 405.6 422.777 399.2C431.977 392.667 444.977 389.4 461.777 389.4ZM580.331 389.4C591.398 389.4 600.931 390.4 608.931 392.4C617.065 394.4 623.265 397.2 627.531 400.8C631.931 404.4 634.131 408.467 634.131 413C634.131 417.667 632.265 421.467 628.531 424.4C624.931 427.333 619.865 428.8 613.331 428.8C606.665 428.8 600.998 427.133 596.331 423.8C591.798 420.467 589.531 416.267 589.531 411.2C589.531 409.467 589.798 407.8 590.331 406.2C587.931 405.533 585.798 405.2 583.931 405.2C580.598 405.2 577.798 406 575.531 407.6C573.398 409.2 572.398 411.467 572.531 414.4C572.531 417.867 574.265 420.8 577.731 423.2C581.198 425.6 586.798 428.6 594.531 432.2C601.198 435.133 606.665 437.867 610.931 440.4C615.331 442.8 618.998 445.867 621.931 449.6C624.998 453.333 626.531 457.733 626.531 462.8C626.531 463.867 626.265 465.867 625.731 468.8C623.598 477.733 617.665 484.8 607.931 490C598.198 495.2 585.398 497.8 569.531 497.8C551.665 497.8 537.465 495.4 526.931 490.6C516.531 485.8 511.331 479.2 511.331 470.8C511.331 465.067 513.065 460.733 516.531 457.8C519.998 454.867 524.598 453.4 530.331 453.4C536.998 453.4 542.665 455.467 547.331 459.6C552.131 463.733 554.531 469 554.531 475.4C554.531 477.133 554.331 478.933 553.931 480.8C557.131 481.6 560.198 482 563.131 482C566.598 482 569.465 481.067 571.731 479.2C573.998 477.333 575.131 474.733 575.131 471.4C574.998 468.333 573.465 465.733 570.531 463.6C567.598 461.333 562.931 458.667 556.531 455.6C550.531 452.8 545.598 450.2 541.731 447.8C537.865 445.267 534.531 442.133 531.731 438.4C529.065 434.667 527.731 430.267 527.731 425.2C527.731 414.267 532.265 405.6 541.331 399.2C550.531 392.667 563.531 389.4 580.331 389.4Z" fill="#FF6F00"/>
</svg>
