<svg width="1445" height="746" viewBox="0 0 1445 746" fill="none" xmlns="http://www.w3.org/2000/svg">
<ellipse cx="728.33" cy="335.26" rx="716.5" ry="302.5" fill="#030202"/>
<path d="M1419.35 302.5C1419.35 339.577 1401.61 376.09 1367.05 410.586C1332.44 445.135 1281.66 476.875 1217.83 503.825C1090.22 557.7 912.984 591.35 716.5 591.35C520.016 591.35 342.776 557.7 215.167 503.825C151.335 476.875 100.561 445.135 65.9493 410.586C31.3902 376.09 13.65 339.577 13.65 302.5C13.65 265.423 31.3902 228.91 65.9493 194.414C100.561 159.865 151.335 128.125 215.167 101.175C342.776 47.2999 520.016 13.65 716.5 13.65C912.984 13.65 1090.22 47.2999 1217.83 101.175C1281.66 128.125 1332.44 159.865 1367.05 194.414C1401.61 228.91 1419.35 265.423 1419.35 302.5Z" fill="#1D4101" stroke="#F6FCFF" stroke-width="27.3"/>
<path d="M280.939 244.405C288.273 244.405 291.939 247.405 291.939 253.405C291.939 255.272 291.539 257.605 290.739 260.405L285.939 276.605C284.473 281.538 282.673 285.005 280.539 287.005C278.406 289.005 275.339 290.005 271.339 290.005C268.006 290.005 265.406 289.138 263.539 287.405C261.806 285.672 260.139 282.938 258.539 279.205L255.139 271.005C254.073 268.472 252.939 266.738 251.739 265.805C250.539 264.872 248.673 264.405 246.139 264.405H241.539L216.139 353.805C215.739 355.538 215.539 357.072 215.539 358.405C215.539 360.005 215.739 361.338 216.139 362.405C216.673 363.472 217.406 364.605 218.339 365.805C219.539 367.672 220.139 369.205 220.139 370.405C220.139 370.672 220.006 371.338 219.739 372.405C219.073 374.138 217.739 375.405 215.739 376.205C213.873 377.005 211.139 377.405 207.539 377.405H160.539C157.739 377.405 155.539 376.938 153.939 376.005C152.473 375.072 151.739 373.738 151.739 372.005C151.739 371.205 151.939 370.405 152.339 369.605C152.873 368.405 153.473 367.538 154.139 367.005C154.939 366.338 156.073 365.538 157.539 364.605C159.539 363.405 161.206 362.072 162.539 360.605C163.873 359.138 165.006 356.872 165.939 353.805L191.139 264.405H186.539C183.606 264.405 181.206 264.872 179.339 265.805C177.473 266.738 175.473 268.472 173.339 271.005L166.739 279.205C163.673 282.805 160.673 285.538 157.739 287.405C154.939 289.138 151.873 290.005 148.539 290.005C145.473 290.005 143.073 289.205 141.339 287.605C139.606 286.005 138.739 283.805 138.739 281.005C138.739 279.672 138.939 278.205 139.339 276.605L144.539 258.405C145.606 254.672 146.806 251.872 148.139 250.005C149.473 248.005 151.339 246.605 153.739 245.805C156.273 244.872 159.806 244.405 164.339 244.405H280.939ZM361.297 244.405C364.097 244.405 366.23 244.872 367.697 245.805C369.297 246.605 370.097 247.805 370.097 249.405C370.097 250.072 369.897 250.938 369.497 252.005C369.097 252.938 368.497 253.805 367.697 254.605C367.03 255.272 366.364 255.805 365.697 256.205C365.164 256.472 364.764 256.738 364.497 257.005C362.364 258.205 360.63 259.538 359.297 261.005C357.964 262.472 356.83 264.738 355.897 267.805L331.697 354.005C331.164 355.738 330.897 357.405 330.897 359.005C330.897 360.605 331.097 361.938 331.497 363.005C332.03 364.072 332.764 365.205 333.697 366.405C334.897 368.138 335.497 369.538 335.497 370.605C335.497 370.872 335.364 371.538 335.097 372.605C334.564 374.472 333.364 375.805 331.497 376.605C329.63 377.272 326.83 377.605 323.097 377.605H276.097C273.297 377.605 271.164 377.138 269.697 376.205C268.097 375.272 267.297 374.005 267.297 372.405C267.297 371.605 267.497 370.738 267.897 369.805C268.43 368.338 269.297 367.205 270.497 366.405C271.697 365.605 272.43 365.138 272.697 365.005C274.83 363.672 276.564 362.338 277.897 361.005C279.23 359.538 280.364 357.205 281.297 354.005L305.697 267.805C306.23 266.072 306.497 264.405 306.497 262.805C306.497 261.338 306.23 260.138 305.697 259.205C305.297 258.138 304.697 256.938 303.897 255.605C302.697 253.872 302.097 252.472 302.097 251.405C302.097 251.005 302.23 250.272 302.497 249.205C303.03 247.472 304.164 246.272 305.897 245.605C307.764 244.805 310.564 244.405 314.297 244.405H361.297ZM574.211 244.405C577.011 244.405 579.144 244.872 580.611 245.805C582.211 246.605 583.011 247.805 583.011 249.405C583.011 250.072 582.811 250.938 582.411 252.005C582.011 253.205 581.411 254.138 580.611 254.805C579.944 255.338 578.878 256.072 577.411 257.005C575.278 258.205 573.544 259.538 572.211 261.005C571.011 262.472 569.944 264.738 569.011 267.805L544.611 353.805C544.078 355.538 543.811 357.205 543.811 358.805C543.811 360.272 544.011 361.538 544.411 362.605C544.944 363.538 545.611 364.672 546.411 366.005C546.944 366.672 547.411 367.405 547.811 368.205C548.211 368.872 548.411 369.605 548.411 370.405C548.411 370.672 548.278 371.338 548.011 372.405C547.478 374.138 546.211 375.405 544.211 376.205C542.344 377.005 539.611 377.405 536.011 377.405H489.011C486.211 377.405 484.011 376.938 482.411 376.005C480.944 375.072 480.211 373.805 480.211 372.205C480.211 371.405 480.411 370.538 480.811 369.605C481.211 368.672 481.744 367.872 482.411 367.205C483.211 366.405 483.878 365.872 484.411 365.605C485.078 365.205 485.544 364.872 485.811 364.605C487.944 363.405 489.678 362.072 491.011 360.605C492.344 359.138 493.478 356.872 494.411 353.805L509.611 299.805L457.811 364.005C453.544 369.205 450.078 372.805 447.411 374.805C444.878 376.672 441.944 377.605 438.611 377.605C435.411 377.605 432.878 376.605 431.011 374.605C429.278 372.472 427.678 368.938 426.211 364.005L407.411 302.205L392.611 354.005C392.078 355.738 391.811 357.405 391.811 359.005C391.811 360.605 392.011 361.938 392.411 363.005C392.944 364.072 393.678 365.205 394.611 366.405C395.811 368.138 396.411 369.538 396.411 370.605C396.411 370.872 396.278 371.538 396.011 372.605C395.478 374.472 394.278 375.805 392.411 376.605C390.544 377.272 387.744 377.605 384.011 377.605H367.411C364.611 377.605 362.411 377.138 360.811 376.205C359.344 375.272 358.611 374.005 358.611 372.405C358.611 371.605 358.811 370.738 359.211 369.805C359.744 368.338 360.611 367.205 361.811 366.405C363.011 365.605 363.744 365.138 364.011 365.005C366.144 363.672 367.878 362.338 369.211 361.005C370.544 359.538 371.678 357.205 372.611 354.005L397.011 267.605L393.811 257.005C393.144 255.005 392.811 253.072 392.811 251.205C392.811 248.805 393.544 247.072 395.011 246.005C396.611 244.938 399.011 244.405 402.211 244.405H433.211C437.211 244.405 440.144 245.272 442.011 247.005C444.011 248.738 445.611 251.738 446.811 256.005L466.811 322.405L521.011 255.005C524.478 250.738 527.878 247.938 531.211 246.605C534.544 245.138 538.944 244.405 544.411 244.405H574.211ZM703.097 244.405C708.03 244.405 711.83 245.472 714.497 247.605C717.297 249.738 718.697 252.672 718.697 256.405C718.697 258.272 718.43 260.072 717.897 261.805L712.697 280.405C711.764 284.005 710.364 286.538 708.497 288.005C706.764 289.338 704.23 290.005 700.897 290.005C697.697 290.005 695.164 289.338 693.297 288.005C691.564 286.538 690.23 284.205 689.297 281.005L686.097 269.605C685.43 267.205 684.63 265.605 683.697 264.805C682.764 264.005 680.964 263.605 678.297 263.605H657.297L647.297 299.205H656.097C657.03 299.205 658.297 298.538 659.897 297.205L666.697 291.205C668.697 289.472 670.43 288.205 671.897 287.405C673.364 286.605 675.164 286.205 677.297 286.205C679.697 286.205 681.63 286.872 683.097 288.205C684.697 289.405 685.497 291.005 685.497 293.005C685.497 293.538 685.364 294.338 685.097 295.405L676.897 323.205C676.097 326.138 674.697 328.338 672.697 329.805C670.83 331.138 668.764 331.805 666.497 331.805C662.764 331.805 659.964 329.872 658.097 326.005L654.697 319.005C653.764 317.005 652.297 316.005 650.297 316.005H642.497L630.697 358.405H648.297C650.83 358.405 653.03 357.938 654.897 357.005C656.897 355.938 659.03 354.138 661.297 351.605L673.297 338.405C675.43 336.138 677.43 334.538 679.297 333.605C681.297 332.538 683.697 332.005 686.497 332.005C689.43 332.005 691.83 332.672 693.697 334.005C695.564 335.338 696.497 337.338 696.497 340.005C696.497 341.072 696.297 342.338 695.897 343.805L690.097 364.005C688.63 369.072 686.497 372.605 683.697 374.605C680.897 376.605 676.83 377.605 671.497 377.605H576.097C573.297 377.605 571.164 377.138 569.697 376.205C568.097 375.272 567.297 374.005 567.297 372.405C567.297 371.605 567.497 370.738 567.897 369.805C568.43 368.338 569.297 367.205 570.497 366.405C571.697 365.605 572.43 365.138 572.697 365.005C574.83 363.672 576.564 362.338 577.897 361.005C579.23 359.538 580.364 357.205 581.297 354.005L605.897 267.805C606.43 266.072 606.697 264.472 606.697 263.005C606.697 261.405 606.43 260.072 605.897 259.005C605.497 257.938 604.83 256.805 603.897 255.605C602.697 253.872 602.097 252.472 602.097 251.405C602.097 251.005 602.23 250.272 602.497 249.205C603.03 247.472 604.23 246.272 606.097 245.605C607.964 244.805 610.697 244.405 614.297 244.405H703.097ZM844.116 241.405C860.916 241.405 874.049 245.405 883.516 253.405C892.982 261.272 897.716 272.672 897.716 287.605C897.716 294.672 896.649 302.272 894.516 310.405C890.516 325.338 884.316 338.005 875.916 348.405C867.516 358.805 857.516 366.672 845.916 372.005C834.316 377.338 821.716 380.005 808.116 380.005C791.449 380.005 778.382 376.072 768.916 368.205C759.449 360.205 754.716 348.738 754.716 333.805C754.716 327.005 755.849 319.205 758.116 310.405C761.982 295.605 768.049 283.072 776.316 272.805C784.716 262.405 794.649 254.605 806.116 249.405C817.716 244.072 830.382 241.405 844.116 241.405ZM840.516 261.005C836.516 261.005 832.916 262.605 829.716 265.805C826.516 269.005 823.316 274.272 820.116 281.605C817.049 288.805 813.716 298.872 810.116 311.805C804.782 330.472 802.116 343.338 802.116 350.405C802.116 354.538 802.849 357.538 804.316 359.405C805.782 361.272 808.116 362.205 811.316 362.205C815.316 362.205 818.916 360.605 822.116 357.405C825.316 354.072 828.449 348.805 831.516 341.605C834.582 334.405 837.982 324.472 841.716 311.805C846.916 293.405 849.516 280.472 849.516 273.005C849.516 268.738 848.782 265.672 847.316 263.805C845.849 261.938 843.582 261.005 840.516 261.005ZM1049.53 263.605C1049.53 268.405 1048.47 272.538 1046.33 276.005C1044.33 279.472 1041.73 282.138 1038.53 284.005C1035.33 285.738 1032.13 286.605 1028.93 286.605C1025.73 286.605 1022.8 285.938 1020.13 284.605C1017.6 283.272 1015.47 281.472 1013.73 279.205L965.533 360.405C961.933 366.538 958.6 370.938 955.533 373.605C952.466 376.272 949 377.605 945.133 377.605C941 377.605 937.666 376.272 935.133 373.605C932.733 370.805 931 366.405 929.933 360.405L913.133 268.005C912.733 265.605 912 263.672 910.933 262.205C909.866 260.738 908.466 259.138 906.733 257.405C905.4 256.205 904.466 255.272 903.933 254.605C903.4 253.805 903.133 252.872 903.133 251.805C902.466 246.872 905.4 244.405 911.933 244.405H961.933C965 244.405 967.333 245.072 968.933 246.405C970.533 247.605 971.266 249.272 971.133 251.405C971.133 252.605 970.866 253.605 970.333 254.405C969.933 255.205 969.2 256.205 968.133 257.405C966.933 258.738 966 260.005 965.333 261.205C964.666 262.405 964.333 263.872 964.333 265.605C964.333 266.405 964.4 267.072 964.533 267.605L972.133 314.205L998.733 267.005C1003.4 258.472 1008 252.472 1012.53 249.005C1017.07 245.405 1022.67 243.605 1029.33 243.605C1035.47 243.605 1040.33 245.405 1043.93 249.005C1047.67 252.472 1049.53 257.338 1049.53 263.605ZM1156.61 244.405C1161.55 244.405 1165.35 245.472 1168.01 247.605C1170.81 249.738 1172.21 252.672 1172.21 256.405C1172.21 258.272 1171.95 260.072 1171.41 261.805L1166.21 280.405C1165.28 284.005 1163.88 286.538 1162.01 288.005C1160.28 289.338 1157.75 290.005 1154.41 290.005C1151.21 290.005 1148.68 289.338 1146.81 288.005C1145.08 286.538 1143.75 284.205 1142.81 281.005L1139.61 269.605C1138.95 267.205 1138.15 265.605 1137.21 264.805C1136.28 264.005 1134.48 263.605 1131.81 263.605H1110.81L1100.81 299.205H1109.61C1110.55 299.205 1111.81 298.538 1113.41 297.205L1120.21 291.205C1122.21 289.472 1123.95 288.205 1125.41 287.405C1126.88 286.605 1128.68 286.205 1130.81 286.205C1133.21 286.205 1135.15 286.872 1136.61 288.205C1138.21 289.405 1139.01 291.005 1139.01 293.005C1139.01 293.538 1138.88 294.338 1138.61 295.405L1130.41 323.205C1129.61 326.138 1128.21 328.338 1126.21 329.805C1124.35 331.138 1122.28 331.805 1120.01 331.805C1116.28 331.805 1113.48 329.872 1111.61 326.005L1108.21 319.005C1107.28 317.005 1105.81 316.005 1103.81 316.005H1096.01L1084.21 358.405H1101.81C1104.35 358.405 1106.55 357.938 1108.41 357.005C1110.41 355.938 1112.55 354.138 1114.81 351.605L1126.81 338.405C1128.95 336.138 1130.95 334.538 1132.81 333.605C1134.81 332.538 1137.21 332.005 1140.01 332.005C1142.95 332.005 1145.35 332.672 1147.21 334.005C1149.08 335.338 1150.01 337.338 1150.01 340.005C1150.01 341.072 1149.81 342.338 1149.41 343.805L1143.61 364.005C1142.15 369.072 1140.01 372.605 1137.21 374.605C1134.41 376.605 1130.35 377.605 1125.01 377.605H1029.61C1026.81 377.605 1024.68 377.138 1023.21 376.205C1021.61 375.272 1020.81 374.005 1020.81 372.405C1020.81 371.605 1021.01 370.738 1021.41 369.805C1021.95 368.338 1022.81 367.205 1024.01 366.405C1025.21 365.605 1025.95 365.138 1026.21 365.005C1028.35 363.672 1030.08 362.338 1031.41 361.005C1032.75 359.538 1033.88 357.205 1034.81 354.005L1059.41 267.805C1059.95 266.072 1060.21 264.472 1060.21 263.005C1060.21 261.405 1059.95 260.072 1059.41 259.005C1059.01 257.938 1058.35 256.805 1057.41 255.605C1056.21 253.872 1055.61 252.472 1055.61 251.405C1055.61 251.005 1055.75 250.272 1056.01 249.205C1056.55 247.472 1057.75 246.272 1059.61 245.605C1061.48 244.805 1064.21 244.405 1067.81 244.405H1156.61ZM1312.99 285.005C1310.86 292.738 1306.86 298.805 1300.99 303.205C1295.13 307.472 1287.73 310.138 1278.79 311.205C1285.19 311.738 1289.99 313.605 1293.19 316.805C1296.39 320.005 1297.99 324.205 1297.99 329.405C1297.99 331.405 1297.66 333.872 1296.99 336.805L1294.79 346.605C1294.53 347.938 1294.39 348.872 1294.39 349.405C1294.39 351.138 1294.79 352.472 1295.59 353.405C1296.39 354.205 1297.53 354.605 1298.99 354.605C1301.79 354.605 1303.79 355.005 1304.99 355.805C1306.33 356.605 1306.79 358.072 1306.39 360.205C1305.86 363.272 1304.26 366.272 1301.59 369.205C1298.93 372.138 1295.13 374.605 1290.19 376.605C1285.39 378.472 1279.53 379.405 1272.59 379.405C1263.79 379.405 1256.79 377.472 1251.59 373.605C1246.39 369.605 1243.79 363.938 1243.79 356.605C1243.79 353.805 1244.19 350.805 1244.99 347.605L1248.19 334.805C1248.73 333.072 1248.99 331.272 1248.99 329.405C1248.99 326.338 1247.93 324.138 1245.79 322.805C1243.79 321.472 1240.53 320.805 1235.99 320.805H1228.39L1219.19 354.005C1218.93 354.805 1218.79 355.805 1218.79 357.005C1218.79 358.872 1219.26 360.472 1220.19 361.805C1221.13 363.138 1222.39 364.538 1223.99 366.005C1225.19 366.938 1226.13 367.872 1226.79 368.805C1227.46 369.605 1227.79 370.472 1227.79 371.405C1227.79 373.672 1226.73 375.272 1224.59 376.205C1222.46 377.138 1219.33 377.605 1215.19 377.605H1164.99C1161.53 377.605 1158.93 377.005 1157.19 375.805C1155.46 374.472 1154.86 372.672 1155.39 370.405C1155.66 369.205 1156.19 368.272 1156.99 367.605C1157.66 366.805 1158.73 365.938 1160.19 365.005C1162.46 363.672 1164.26 362.272 1165.59 360.805C1166.93 359.338 1167.99 357.072 1168.79 354.005L1193.19 267.805C1193.73 266.072 1193.99 264.405 1193.99 262.805C1193.99 261.338 1193.73 260.138 1193.19 259.205C1192.79 258.138 1192.19 256.938 1191.39 255.605C1190.19 253.872 1189.59 252.472 1189.59 251.405C1189.59 251.005 1189.73 250.272 1189.99 249.205C1190.53 247.472 1191.66 246.272 1193.39 245.605C1195.26 244.805 1198.06 244.405 1201.79 244.405H1268.79C1277.99 244.405 1285.99 245.805 1292.79 248.605C1299.73 251.405 1304.99 255.272 1308.59 260.205C1312.33 265.005 1314.19 270.472 1314.19 276.605C1314.19 279.405 1313.79 282.205 1312.99 285.005ZM1261.79 283.005C1262.46 279.938 1262.79 277.605 1262.79 276.005C1262.79 268.938 1258.93 265.405 1251.19 265.405H1242.79L1233.99 300.805H1242.39C1247.59 300.805 1251.66 299.538 1254.59 297.005C1257.66 294.472 1260.06 289.805 1261.79 283.005Z" fill="#F6FCFF"/>
<circle cx="728.83" cy="595.76" r="150" fill="#030202"/>
<circle cx="717" cy="563" r="136.35" fill="#1D4101" stroke="#F6FCFF" stroke-width="27.3"/>
</svg>
